# xmcd
#
# Track frame offsets: 
#        150
#        14657
#        27165
#        39797
#        54155
#        66707
#        78945
#        89585
#        103060
#        114207
#        125730
#        136722
#        156120
#        169137
#        179120
#        192407
#        214732
#
# Disc length: 4440 seconds
#
# Revision: 3
# Processed by: cddbd v1.5.2PL0 Copyright (c) Steve Scherf et al.
# Submitted via: ExactAudioCopy v1.3
#
DISCID=ec115611
DTITLE=Beastie Boys - To The 5 Boroughs
DYEAR=2004
DGENRE=Hip-Hop
TTITLE0=Ch-Check It Out
TTITLE1=Right Right Now Now
TTITLE2=3 The Hard Way
TTITLE3=It Takes Time To Build
TTITLE4=Rhyme The Rhyme Well
TTITLE5=Triple Trouble
TTITLE6=Hey Fuck You
TTITLE7=Oh Word
TTITLE8=That's It That's All
TTITLE9=All Lifestyles
TTITLE10=Shazam!
TTITLE11=An Open Letter To NYC
TTITLE12=Crawlspace
TTITLE13=The Brouhaha
TTITLE14=We Got The
TTITLE15=Now Get Busy (Bonus Track)
TTITLE16=CD-Extra
EXTD=
EXTT0=
EXTT1=
EXTT2=
EXTT3=
EXTT4=
EXTT5=
EXTT6=
EXTT7=
EXTT8=
EXTT9=
EXTT10=
EXTT11=
EXTT12=
EXTT13=
EXTT14=
EXTT15=
EXTT16=
PLAYORDER=
